<?xml version="1.0" encoding="UTF-8" standalone="no"?>
<!-- Created with Inkscape (http://www.inkscape.org/) -->

<svg
   width="214.75229mm"
   height="220.94029mm"
   viewBox="0 0 214.75228 220.94029"
   version="1.1"
   id="svg398"
   inkscape:version="1.2.2 (b0a8486541, 2022-12-01)"
   sodipodi:docname="star3.svg"
   xmlns:inkscape="http://www.inkscape.org/namespaces/inkscape"
   xmlns:sodipodi="http://sodipodi.sourceforge.net/DTD/sodipodi-0.dtd"
   xmlns="http://www.w3.org/2000/svg"
   xmlns:svg="http://www.w3.org/2000/svg">
  <sodipodi:namedview
     id="namedview400"
     pagecolor="#505050"
     bordercolor="#ffffff"
     borderopacity="1"
     inkscape:showpageshadow="0"
     inkscape:pageopacity="0"
     inkscape:pagecheckerboard="1"
     inkscape:deskcolor="#505050"
     inkscape:document-units="mm"
     showgrid="false"
     inkscape:zoom="0.74742565"
     inkscape:cx="-122.4202"
     inkscape:cy="413.41905"
     inkscape:window-width="1920"
     inkscape:window-height="1011"
     inkscape:window-x="0"
     inkscape:window-y="800"
     inkscape:window-maximized="1"
     inkscape:current-layer="layer1" />
  <defs
     id="defs395" />
  <g
     inkscape:label="Layer 1"
     inkscape:groupmode="layer"
     id="layer1"
     transform="translate(-93.501516,-44.797619)">
    <g
       id="g60"
       transform="matrix(0.04007838,0,0,-0.04007838,-192.4933,697.63417)">
      <path
         d="m 9906.04,15275 c -18.98,-41.8 -28.23,-56.5 -32.52,-72.6 -66.81,-244.8 -135.27,-489.1 -197.91,-735 -18.44,-72.4 -65.71,-112 -126.54,-95.3 -215.59,59.1 -409.1,-26.5 -611.86,-72.4 46.8,-28.9 94.9,-41.8 142.39,-56.5 189.45,-59.2 381.8,-111 566.02,-183.5 56.08,-22 107.59,-95.7 128.94,-157 33.9,-97 40.47,-203.4 59.28,-309.4 48.27,155.6 83.45,311.2 144.76,455.7 72.2,170.2 265.4,160.1 420.7,234.8 -117.8,31.9 -217.7,65.4 -320,84.7 -96.86,18.3 -134.34,71.9 -138.09,164.8 -9.62,236.9 -22.17,473.5 -35.17,741.7 M 7888.2,14421.8 c 271.66,12.1 543.16,15.3 812.8,38.8 266.61,23.3 531.33,66.9 817.27,104.3 63.33,264.7 133.51,553.4 201.1,842.7 41.54,177.6 82.77,355.5 116.84,534.5 15.57,81.3 6.23,167.4 22.55,248.5 7.23,35.7 45.36,81.9 78.77,92 57.84,17.4 124.17,1.5 131.77,-75.1 12.9,-129.8 17.9,-260.5 23.5,-391 15.2,-346.1 28.6,-692.3 43.4,-1038.5 3.8,-86.7 10.7,-173.4 17.1,-274.6 212.8,-29.6 417.9,-56.6 622.4,-87.5 75.1,-11.3 151,-26 222,-51.4 32.3,-11.6 53.6,-53.3 79.9,-81.3 -30.2,-19.3 -58.1,-47.6 -91.1,-56.5 -210.5,-57.4 -424.4,-103.3 -632.6,-167.3 -137.1,-42.2 -205.5,-159.1 -223.5,-295.5 -26.1,-199.3 -38.5,-400.5 -60.1,-600.5 -22.1,-204.8 -45.4,-409.6 -75.86,-613.1 -3.4,-22.7 -59.27,-57.2 -86.03,-53.2 -101.26,14.6 -173.08,72.3 -189.58,180.2 -28.03,183.4 -54.68,367 -81.15,550.7 -30.26,209.1 -55.63,419.2 -92.91,627.1 -8.08,44.6 -50.96,106.1 -90.53,118.1 -225.66,68.7 -452.63,137.5 -683.96,181.4 -241.16,45.9 -487.91,62.1 -731.72,94.8 -86.68,11.7 -165.11,40.8 -150.36,172.4"
         style="fill:#000000;fill-opacity:1;fill-rule:evenodd;stroke:none"
         id="path62" />
    </g>
    <path
       d="m 152.73682,213.13267 c -0.0907,0.37747 -0.18733,0.75494 -0.27552,1.13241 -1.80234,0.41628 -3.92465,1.62631 -5.32342,1.05834 -1.85067,-0.75142 -4.13808,-2.69522 -4.48804,-4.48028 -1.16734,-5.9055 -1.55328,-11.97328 -2.2352,-17.98109 -1.31198,1.81328 -2.13042,3.76767 -2.42817,5.8032 -0.7567,5.13644 -3.2713,7.79286 -8.71749,8.54075 -6.10341,0.84314 -12.05935,2.78342 -18.07704,4.24392 -0.0483,0.38452 -0.0991,0.76905 -0.14746,1.15358 4.43583,1.07597 8.81662,2.46239 13.30784,3.16795 9.24242,1.44638 9.35672,2.05316 10.04711,10.08591 0.3817,4.45559 1.61502,8.83709 2.46662,13.24681 2.11243,-3.45017 3.25085,-6.9215 4.81083,-10.18822 3.07023,-6.43467 5.82754,-13.34912 14.75458,-13.44437 0.37077,-0.004 0.73872,-0.59972 1.3589,-1.143 -1.95686,-0.46213 -3.50732,-0.82902 -5.05354,-1.19591 m -59.230688,-1.42523 c -0.135114,-5.23522 2.717447,-5.71852 5.732639,-6.19477 9.202559,-1.45345 18.374789,-3.18206 27.610509,-4.37445 2.85644,-0.37041 3.59092,-1.76741 4.27461,-4.00403 2.25848,-7.38011 4.44288,-14.79197 7.09824,-22.02744 0.57609,-1.58045 2.92559,-3.34786 4.55718,-3.44311 1.36984,-0.0847 3.07975,1.9685 4.24427,3.39372 0.63959,0.77964 0.55386,2.2225 0.64629,3.37608 0.64629,8.16328 1.13842,16.34067 2.00096,24.48278 0.13652,1.29117 1.69651,3.1362 2.9337,3.46781 3.65478,0.96308 7.50217,1.16769 11.22539,1.91205 3.54541,0.70556 7.112,1.49578 10.49514,2.72345 1.28411,0.46919 2.40594,2.14842 2.92452,3.5313 0.16934,0.44803 -1.67569,2.07787 -2.84691,2.52237 -4.41678,1.67922 -8.84767,3.51719 -13.44084,4.48733 -4.54131,0.95603 -7.53709,3.46428 -8.90693,7.47889 -3.58422,10.57275 -6.72747,21.29719 -10.1727,31.92639 -0.60502,1.87325 0.4452,5.25992 -3.54295,4.71311 -3.32669,-0.45861 -6.35705,-1.52047 -7.17127,-5.19289 -0.82267,-3.69711 -1.15358,-7.48947 -1.8288,-11.2148 -1.44286,-8.01864 -2.82751,-16.05139 -4.59422,-23.99948 -0.29775,-1.34408 -2.21474,-2.75519 -3.69323,-3.33022 -9.21773,-3.57011 -18.52648,-6.91092 -27.545598,-10.23409"
       style="fill:#000000;fill-opacity:1;fill-rule:evenodd;stroke:none;stroke-width:0.0352778"
       id="path64" />
    <g
       id="g66"
       transform="matrix(0.03999865,0,0,-0.03999865,-192.4933,697.63417)">
      <path
         d="m 11332.2,15276.9 c 71,-29.4 139.9,-51.7 202.4,-85.7 63.1,-34.4 119.9,-80.3 186.8,-126.3 75.8,135.6 210.8,184.3 359,220.8 -109.8,32.2 -219.7,64.4 -330,96.6 -3.8,51.1 -7.1,98 -11.8,161.9 -114.2,-216.3 -114.2,-216.3 -406.4,-267.3 m 1186.9,-135.9 c -95.4,-17.7 -157,-38.3 -218.9,-39.1 -258.9,-2.8 -363.3,-84.2 -426,-338.5 -34.8,-141.2 -69.6,-282.5 -113.1,-421.1 -8.2,-26.4 -58.9,-59.1 -86.3,-56.1 -68.4,7.7 -139.8,30.1 -146.7,118.5 -11.9,151.3 -26.2,302.6 -30,454.1 -4.8,197.2 -6.3,190.7 -186.6,256.9 -138,50.5 -266.1,128.5 -396.9,193.5 31.9,128.6 114.4,142.9 199,145.3 94.7,2.5 189.7,-3.2 284.6,-4.9 62.3,-1.2 95,20.6 111.4,90.2 52.5,223.5 112.9,445.3 178.4,665.4 11.5,38.9 62.6,94.8 93.2,93.4 61.4,-2.7 79.7,-57.8 102.7,-123.1 74.3,-211.9 37.1,-431.1 73.8,-643.2 5.9,-33.7 65.1,-63.6 105.2,-84.9 121.1,-64.2 246.7,-120.3 366.6,-186.5 30.2,-16.8 45.9,-59.6 89.6,-119.9"
         style="fill:#000000;fill-opacity:1;fill-rule:evenodd;stroke:none"
         id="path68" />
    </g>
  </g>
</svg>
