<?xml version="1.0" encoding="UTF-8" standalone="no"?>
<!-- Created with Inkscape (http://www.inkscape.org/) -->

<svg
   width="180.5573mm"
   height="186.41516mm"
   viewBox="0 0 180.55729 186.41516"
   version="1.1"
   id="svg398"
   inkscape:version="1.2.2 (b0a8486541, 2022-12-01)"
   sodipodi:docname="star1.svg"
   xmlns:inkscape="http://www.inkscape.org/namespaces/inkscape"
   xmlns:sodipodi="http://sodipodi.sourceforge.net/DTD/sodipodi-0.dtd"
   xmlns="http://www.w3.org/2000/svg"
   xmlns:svg="http://www.w3.org/2000/svg">
  <sodipodi:namedview
     id="namedview400"
     pagecolor="#505050"
     bordercolor="#ffffff"
     borderopacity="1"
     inkscape:showpageshadow="0"
     inkscape:pageopacity="0"
     inkscape:pagecheckerboard="1"
     inkscape:deskcolor="#505050"
     inkscape:document-units="mm"
     showgrid="false"
     inkscape:zoom="0.74742565"
     inkscape:cx="44.820512"
     inkscape:cy="297.01951"
     inkscape:window-width="1920"
     inkscape:window-height="1011"
     inkscape:window-x="0"
     inkscape:window-y="800"
     inkscape:window-maximized="1"
     inkscape:current-layer="layer1" />
  <defs
     id="defs395" />
  <g
     inkscape:label="Layer 1"
     inkscape:groupmode="layer"
     id="layer1"
     transform="translate(-93.607374,-41.174597)">
    <path
       d="m 176.2011,87.561349 c -0.64876,0.176389 -1.29505,0.345723 -1.94134,0.515056 0,7.274278 0.14323,14.552085 -0.10336,21.815775 -0.0593,1.79212 -0.9331,4.064 -2.2285,5.18937 -2.14136,1.85208 -4.81083,3.27025 -7.47713,4.29683 -5.62116,2.159 -11.39084,3.94406 -18.46298,6.35 3.50697,2.94922 6.07025,6.04732 9.35955,7.69126 5.836,2.91606 12.1405,4.88103 18.18887,7.38082 5.36857,2.21862 6.71654,5.24475 5.8413,11.00208 -0.74825,4.95406 -1.02376,9.98114 -1.50883,14.97506 0.40393,0.17251 0.81562,0.34044 1.21955,0.51012 2.62502,-4.41819 5.50792,-8.71079 7.81332,-13.28984 3.07446,-6.10624 7.86201,-9.33345 14.5535,-9.53594 4.07211,-0.12136 8.17068,0.30162 12.2495,0.51788 2.20345,0.11465 4.39879,0.3115 6.60224,0.47413 -2.29165,-3.29071 -4.81083,-5.68431 -7.50888,-7.85072 -4.00614,-3.20675 -4.25979,-5.66631 -1.12748,-9.57121 2.92982,-3.65125 5.59224,-7.52475 8.45997,-11.41942 -4.52014,0 -8.46385,-0.37747 -12.30454,0.0776 -9.81569,1.16064 -15.41604,-4.36033 -20.1235,-11.78983 -3.7084,-5.859641 -7.65916,-11.564058 -11.50126,-17.339031 m 58.43023,26.348971 c -5.04896,6.49111 -9.66823,12.43542 -14.13298,18.18076 5.33576,5.82366 10.45386,11.40883 15.57725,17.00107 -0.20673,0.58843 -0.40781,1.17933 -0.6103,1.76636 -2.37596,0.50024 -4.76674,1.49119 -7.11236,1.39629 -5.10116,-0.20285 -10.19739,-0.8449 -15.26575,-1.52012 -9.17646,-1.21532 -11.86357,0.15028 -16.61231,8.10013 -3.34433,5.60705 -6.7056,11.26279 -10.70045,16.3957 -1.78435,2.2987 -5.00098,4.39209 -7.82179,4.7999 -6.82519,0.97296 -10.92765,-3.15172 -11.13296,-10.95834 -0.13935,-5.36857 0.34854,-10.81334 1.20015,-16.12018 0.73166,-4.54201 -0.54716,-7.31061 -4.85352,-8.82756 -4.53919,-1.60126 -9.41176,-2.70263 -13.45107,-5.16361 -4.77061,-2.90759 -9.22866,-6.6354 -13.03196,-10.7382 -3.95499,-4.26156 -2.80988,-6.82978 2.69557,-8.43139 5.87869,-1.70392 11.74609,-3.46428 17.62231,-5.18231 4.54872,-1.32997 6.50981,-4.20158 6.43255,-9.06991 -0.0991,-6.508754 0.39265,-13.017505 0.6724,-19.529783 0.0512,-1.150055 0.28963,-2.303639 0.48119,-3.443111 1.45379,-8.618362 8.40175,-9.239251 13.3544,-4.801306 5.1375,4.607278 9.36802,10.283473 13.64933,15.762112 2.7245,3.485445 4.73357,7.521218 7.21959,11.207748 4.07212,6.03956 9.97727,6.52992 16.63842,5.87728 4.93501,-0.47978 10.00619,0.0141 14.97541,0.50447 1.42346,0.13406 2.7051,1.74978 4.20688,2.794"
       style="fill:#000000;fill-opacity:1;fill-rule:evenodd;stroke:none;stroke-width:0.0352778"
       id="path114" />
    <path
       d="m 210.57365,75.993765 c 1.73355,-8.946445 4.00191,-16.78164 10.40976,-22.800029 2.58939,-2.430639 5.01333,-1.442861 7.01817,0.172861 0.66004,0.532695 0.20955,3.294945 -0.53305,4.575528 -3.6135,6.233584 -7.38787,12.378973 -11.37179,18.376196 -0.68333,1.019528 -2.64443,1.42875 -4.07353,1.591028 -0.49177,0.04939 -1.16275,-1.516945 -1.44956,-1.915584"
       style="fill:#000000;fill-opacity:1;fill-rule:evenodd;stroke:none;stroke-width:0.0352778"
       id="path116" />
    <path
       d="m 123.69929,63.71357 c 3.64914,1.566334 7.36988,2.434167 10.14095,4.54025 3.41207,2.592917 6.25793,6.057195 8.93516,9.465029 2.15547,2.744611 1.09008,4.815417 -2.45675,4.674306 -2.1597,-0.08819 -4.50215,-1.195917 -6.35282,-2.448278 -4.67854,-3.164417 -9.17222,-6.607528 -13.61652,-10.096501 -0.72601,-0.5715 -1.42769,-2.518833 -1.10525,-2.864556 1.16452,-1.259416 2.77283,-2.102555 4.45523,-3.27025"
       style="fill:#000000;fill-opacity:1;fill-rule:evenodd;stroke:none;stroke-width:0.0352778"
       id="path118" />
    <path
       d="m 218.52067,186.25376 c 7.56426,0.0702 11.15131,4.82847 15.29786,8.59332 1.16029,1.05692 2.27647,2.35761 2.89666,3.7786 0.91087,2.08915 1.94275,4.55718 -0.92887,6.09212 -2.45992,1.31762 -4.45805,1.67428 -6.71265,-1.2125 -3.19405,-4.08728 -7.30356,-7.45384 -10.94987,-11.19928 -1.24143,-1.27071 -2.26942,-2.75484 -3.38984,-4.13844 1.54199,-0.77576 3.08116,-1.55434 3.78671,-1.91382"
       style="fill:#000000;fill-opacity:1;fill-rule:evenodd;stroke:none;stroke-width:0.0352778"
       id="path120" />
    <path
       d="m 118.29474,192.50428 c 5.29837,-6.13234 10.36284,-12.10734 15.57302,-17.9571 1.60831,-1.80234 3.67277,-2.39783 5.68043,-0.34043 2.04223,2.08492 1.0541,3.67947 -0.58279,5.58095 -3.57329,4.14937 -6.84495,8.54816 -10.28594,12.81183 -3.83364,4.75156 -5.09306,4.80377 -10.38472,-0.0952"
       style="fill:#000000;fill-opacity:1;fill-rule:evenodd;stroke:none;stroke-width:0.0352778"
       id="path122" />
    <path
       d="m 125.2374,137.83889 c -1.75859,1.01035 -3.41065,2.51213 -5.30295,2.9531 -6.8446,1.60408 -13.73756,3.06635 -20.681636,4.09011 -1.758245,0.25788 -4.996745,-0.85972 -5.433449,-2.09727 -1.014236,-2.86349 1.817476,-3.96204 4.111908,-4.41395 6.864037,-1.35044 13.741827,-2.67617 20.666497,-3.54295 1.97203,-0.24941 4.14655,1.09432 6.229,1.70744 0.13476,0.43674 0.27129,0.87101 0.41063,1.30352"
       style="fill:#000000;fill-opacity:1;fill-rule:evenodd;stroke:none;stroke-width:0.0352778"
       id="path124" />
    <path
       d="m 188.46154,207.11034 c -0.56092,5.06412 -0.99766,9.81569 -1.66582,14.53832 -0.19579,1.38748 -0.69885,3.07693 -1.67182,3.92466 -1.26612,1.11336 -3.18029,2.11243 -4.7445,2.00907 -0.85584,-0.055 -2.0821,-2.42006 -2.22533,-3.83787 -0.32244,-3.16125 -0.0843,-6.38599 -0.0469,-9.58709 0.091,-8.22537 2.07398,-9.5885 10.35439,-7.04709"
       style="fill:#000000;fill-opacity:1;fill-rule:evenodd;stroke:none;stroke-width:0.0352778"
       id="path126" />
    <path
       d="m 274.16467,118.10132 c -3.33093,1.70392 -6.55814,3.67242 -10.02806,5.02003 -2.75061,1.07245 -5.77251,1.59103 -8.72173,1.91206 -0.87065,0.0988 -2.51883,-1.18534 -2.69945,-2.06022 -0.19827,-0.97014 0.59936,-2.83987 1.44709,-3.21734 4.51309,-1.99319 9.09214,-3.94758 13.83665,-5.22817 1.65665,-0.44802 3.84493,1.06539 5.7905,1.68275 0.12841,0.63148 0.25364,1.25942 0.375,1.89089"
       style="fill:#000000;fill-opacity:1;fill-rule:evenodd;stroke:none;stroke-width:0.0352778"
       id="path128" />
    <path
       d="m 180.04179,41.174597 c 2.13466,1.502833 5.56718,2.645833 6.11011,4.593166 0.87524,3.122084 -0.34855,6.745112 -4.35857,7.870473 -1.03505,0.289278 -3.09492,0.1905 -3.2632,-0.257528 -1.20861,-3.27025 -2.08632,-6.660444 -2.86914,-10.061222 -0.0247,-0.109362 2.12372,-0.719667 3.25791,-1.090084 0.13617,-0.04233 0.28927,-0.03175 0.43673,-0.04586 0.22719,-0.335139 0.45897,-0.673806 0.68616,-1.008944"
       style="fill:#000000;fill-opacity:1;fill-rule:evenodd;stroke:none;stroke-width:0.0352778"
       id="path130" />
  </g>
</svg>
