<?xml version="1.0" encoding="UTF-8" standalone="no"?>
<!-- Created with Inkscape (http://www.inkscape.org/) -->

<svg
   width="115.93195mm"
   height="126.63663mm"
   viewBox="0 0 115.93194 126.63662"
   version="1.1"
   id="svg398"
   inkscape:version="1.2.2 (b0a8486541, 2022-12-01)"
   sodipodi:docname="star2.svg"
   xmlns:inkscape="http://www.inkscape.org/namespaces/inkscape"
   xmlns:sodipodi="http://sodipodi.sourceforge.net/DTD/sodipodi-0.dtd"
   xmlns="http://www.w3.org/2000/svg"
   xmlns:svg="http://www.w3.org/2000/svg">
  <sodipodi:namedview
     id="namedview400"
     pagecolor="#505050"
     bordercolor="#ffffff"
     borderopacity="1"
     inkscape:showpageshadow="0"
     inkscape:pageopacity="0"
     inkscape:pagecheckerboard="1"
     inkscape:deskcolor="#505050"
     inkscape:document-units="mm"
     showgrid="false"
     inkscape:zoom="0.74742565"
     inkscape:cx="-411.41216"
     inkscape:cy="21.406812"
     inkscape:window-width="1920"
     inkscape:window-height="1011"
     inkscape:window-x="0"
     inkscape:window-y="800"
     inkscape:window-maximized="1"
     inkscape:current-layer="layer1" />
  <defs
     id="defs395" />
  <g
     inkscape:label="Layer 1"
     inkscape:groupmode="layer"
     id="layer1"
     transform="translate(-125.92004,-179.38571)">
    <path
       d="m 185.56857,201.58791 c -2.82575,11.22539 -5.70089,23.08578 -8.83708,34.87667 -1.18534,4.45805 -3.2385,5.36893 -7.71173,4.42913 -0.81491,-0.16934 -1.73214,-0.17639 -2.54705,-0.0109 -7.27428,1.4799 -14.54503,2.97392 -21.79109,4.56389 -0.97366,0.2166 -1.82386,0.99095 -3.64772,2.02318 3.01272,0.9398 4.91067,1.62736 6.858,2.11949 6.5017,1.63018 13.07395,2.97779 19.50156,4.84646 3.95111,1.14935 6.9603,7.77063 5.93019,11.78066 -1.72155,6.65727 -3.41489,13.32583 -5.1188,19.98733 2.38477,-1.01424 4.04636,-2.4063 5.52802,-3.96346 3.63714,-3.81141 6.985,-7.91951 10.82323,-11.51078 5.03414,-4.71135 6.47347,-7.26758 15.06714,-2.26942 5.6903,3.3087 12.32253,5.00485 19.85433,7.94279 -3.31964,-8.75877 -6.17714,-16.35584 -9.08403,-23.93492 -1.32997,-3.47415 0.47625,-6.81178 4.1275,-6.74299 6.40998,0.11853 8.83709,-4.99675 12.69295,-8.26523 -0.10231,-0.45897 -0.20461,-0.92216 -0.30692,-1.38078 h -28.40919 c -4.59317,-12.2555 -8.91823,-23.79133 -12.92931,-34.49108 m -15.47283,32.91593 c 2.16252,-12.90637 4.33211,-25.81099 6.48405,-38.72265 0.66675,-4.0252 0.93839,-8.16328 2.10961,-12.0262 0.55034,-1.80622 2.65642,-4.03578 4.35681,-4.33211 1.68275,-0.28928 4.79778,1.15711 5.44689,2.6423 2.75166,6.34295 4.81541,12.98928 7.1508,19.51567 2.87867,8.06803 5.54567,16.22778 8.85825,24.11237 0.70203,1.6764 3.73239,3.17041 5.79262,3.32034 7.28838,0.52529 14.61558,0.38594 21.92866,0.61066 2.17311,0.066 4.41325,0.22331 6.48406,0.82268 3.28789,0.95073 4.18747,4.35045 1.78858,6.82942 -5.03414,5.20347 -10.33639,10.14942 -15.3035,15.41886 -1.016,1.07633 -1.778,3.31576 -1.38641,4.6415 2.84691,9.51794 6.01486,18.94522 9.12988,28.54325 -3.17852,1.99813 -5.48569,2.86491 -9.26747,0.96167 -8.97467,-4.52402 -18.41147,-8.1594 -27.76714,-11.88261 -0.91017,-0.35984 -2.89278,0.85301 -3.83117,1.84785 -8.48783,8.98878 -16.96508,17.99308 -25.19891,27.21751 -2.76578,3.09527 -5.84906,1.94592 -8.34673,0.84349 -1.3723,-0.60501 -2.57175,-3.89572 -2.24719,-5.68431 1.74625,-9.59414 3.96169,-19.10926 6.08542,-28.6385 2.28247,-10.25525 4.37797,-9.07309 -7.1367,-12.08123 -9.08756,-2.36467 -17.98461,-5.51497 -26.85697,-8.63212 -1.19592,-0.42298 -2.01084,-2.60455 -2.44123,-4.13138 -0.13405,-0.47413 1.46756,-1.91664 2.46239,-2.15512 11.07723,-2.70369 22.18267,-5.28073 33.2987,-7.81896 2.27894,-0.52529 4.62139,-0.75953 6.93561,-1.12995 0.49036,-0.0332 0.9772,-0.0593 1.47109,-0.0924"
       style="fill:#000000;fill-opacity:1;fill-rule:evenodd;stroke:none;stroke-width:0.0352778"
       id="path44" />
  </g>
</svg>
