<?xml version="1.0" encoding="UTF-8" standalone="no"?>
<!-- Created with Inkscape (http://www.inkscape.org/) -->

<svg
   width="107.60111mm"
   height="108.16425mm"
   viewBox="0 0 107.60111 108.16425"
   version="1.1"
   id="svg398"
   inkscape:version="1.2.2 (b0a8486541, 2022-12-01)"
   sodipodi:docname="star.svg"
   xmlns:inkscape="http://www.inkscape.org/namespaces/inkscape"
   xmlns:sodipodi="http://sodipodi.sourceforge.net/DTD/sodipodi-0.dtd"
   xmlns="http://www.w3.org/2000/svg"
   xmlns:svg="http://www.w3.org/2000/svg">
  <sodipodi:namedview
     id="namedview400"
     pagecolor="#505050"
     bordercolor="#ffffff"
     borderopacity="1"
     inkscape:showpageshadow="0"
     inkscape:pageopacity="0"
     inkscape:pagecheckerboard="1"
     inkscape:deskcolor="#505050"
     inkscape:document-units="mm"
     showgrid="false"
     inkscape:zoom="0.74742565"
     inkscape:cx="212.06123"
     inkscape:cy="167.24072"
     inkscape:window-width="1920"
     inkscape:window-height="1011"
     inkscape:window-x="0"
     inkscape:window-y="800"
     inkscape:window-maximized="1"
     inkscape:current-layer="layer1" />
  <defs
     id="defs395" />
  <g
     inkscape:label="Layer 1"
     inkscape:groupmode="layer"
     id="layer1"
     transform="translate(-49.368739,-75.619365)">
    <g
       id="g32"
       transform="matrix(0.04174631,0,0,-0.04174631,-523.495,247.1617)">
      <path
         d="m 15427,2496.64 c -50.6,-48.29 -84.7,-80.77 -125.6,-119.73 85,-45.48 157.9,-84.44 231,-123.59 4.2,5.97 8.5,11.89 12.7,17.86 -36.5,69.75 -73.1,139.5 -118.1,225.46 m -1186.2,489.57 c -2.5,-10.89 -5.1,-21.78 -7.5,-32.71 67.8,-34.99 135.7,-70.18 215.4,-111.35 16.3,55.85 29.7,101.67 47,160.96 -96.6,-6.34 -175.7,-11.62 -254.9,-16.9 m 1601.1,156.4 -9.1,22.88 c -145.5,-19.71 -290.8,-39.58 -447.5,-60.87 40.3,-95.6 72.2,-171 105.9,-251.21 121.9,100.45 236.2,194.83 350.7,289.2 m -970,523.47 c -40.1,-162.74 -73.5,-298.37 -110.4,-448.17 111.7,8.88 207.4,16.53 325.4,25.87 -72.4,142.15 -136.4,267.85 -215,422.3 m -353,-1743.41 c 11.4,-2.45 22.8,-4.83 34.2,-7.2 141.7,152.44 283.1,304.77 433.1,466.46 -129.4,74.51 -250.2,144.09 -384.8,221.5 -29.9,-246.39 -56.1,-463.59 -82.5,-680.76 m 592.7,1149.13 c -62.7,-3.76 -126.3,-1.84 -187.8,-12.84 -68.8,-12.31 -160.7,-15.74 -197.2,-60.24 -45.5,-55.68 -57.5,-149.2 -57.8,-226.42 -0.2,-27.72 75.4,-56.37 117.4,-83.21 35,-22.51 71.2,-43.18 107.1,-64.4 209.8,-124.12 208.7,-122.6 387.1,33.33 110.2,96.49 -6.9,170.4 -29.2,246.59 -19.2,65.69 -42.7,156.63 -139.6,167.19 m -1175,64.15 c 181.5,16.27 363.2,30.49 544.2,51.36 25.7,3 64,33.87 69.3,57.96 56.6,254.48 104.5,510.8 163.4,764.74 9.3,39.94 60.2,97.02 94.4,98.77 70.1,3.79 139.4,-19.94 173.8,-103.09 91.8,-222.26 192.2,-441.02 285.4,-662.87 25.4,-60.18 58.4,-69.85 121,-62.46 229,27 458.9,45.81 688.7,66.68 27.5,2.48 60.3,7.93 82.4,-3.69 49.7,-26.05 94.2,-62.03 140.8,-93.95 -32.3,-36.41 -60.7,-77.47 -97.6,-108.44 -183.2,-153.33 -370.3,-302.08 -551.4,-457.84 -21.6,-18.59 -31.6,-76.56 -19.6,-104.09 71.2,-161.85 138.6,-327.46 231.9,-476.4 50.2,-80.37 151,-128.14 225.6,-194.19 28.9,-25.72 48.6,-61.67 72.5,-92.89 -33,-20.43 -63.6,-49.89 -99.4,-59.55 -155.4,-41.79 -227,-3.9 -309.9,131.47 -33,53.94 -84.9,102.3 -139,135.74 -118.9,73.61 -246.3,133.53 -367.1,204.17 -48.2,28.42 -79.9,26.11 -117.9,-15.12 -173,-187.99 -348.1,-373.77 -522,-560.87 -11.7,-12.64 -18.8,-29.44 -27.6,-44.66 -56.7,-97.32 -103.4,-110.22 -220.5,-59.23 -92.7,40.48 -94,104.61 -72.9,197.31 26.1,114.87 15.6,237.4 32.3,355.12 22.9,162.17 54.2,323.33 86.2,484.05 14.1,70.71 6.4,115.47 -70.4,148.21 -179.7,76.89 -356.2,161.76 -530.6,250.06 -34.5,17.52 -53.8,65.03 -80.1,98.63 39.7,19.51 77.9,44.14 119.6,56.98 28.8,8.88 62.5,1.78 94.2,1.78 0.1,-1.32 0.3,-2.57 0.3,-3.69"
         style="fill:#000000;fill-opacity:1;fill-rule:evenodd;stroke:none"
         id="path34" />
    </g>
  </g>
</svg>
